Coordinates
version=1
nRows=17
nColumns=40
inDegrees=yes

Units are S.I. units (second, meters, Newtons, ...)
Angles are in degrees.

endheader
time	pelvis_tilt	pelvis_list	pelvis_rotation	pelvis_tx	pelvis_ty	pelvis_tz	hip_flexion_r	hip_adduction_r	hip_rotation_r	knee_angle_r	knee_angle_r_beta	ankle_angle_r	subtalar_angle_r	mtp_angle_r	hip_flexion_l	hip_adduction_l	hip_rotation_l	knee_angle_l	knee_angle_l_beta	ankle_angle_l	subtalar_angle_l	mtp_angle_l	lumbar_extension	lumbar_bending	lumbar_rotation	arm_flex_r	arm_add_r	arm_rot_r	elbow_flex_r	pro_sup_r	wrist_flex_r	wrist_dev_r	arm_flex_l	arm_add_l	arm_rot_l	elbow_flex_l	pro_sup_l	wrist_flex_l	wrist_dev_l
      1.10000000	     -2.94812060	     -0.36384088	      0.85369754	     -0.00412857	      0.88215243	      1.47799738	     -0.84587250	      1.36883961	    -13.80809906	    -21.39990119	     -0.37349874	     14.04504057	      0.42202562	     -8.06293514	     32.41016895	      6.02058936	     15.41570509	    -24.64883060	     -0.43020325	      3.49423422	      8.05108339	     -5.42795172	     -4.40890281	     -1.13137225	      3.03622095	      8.23949634	    -12.31564491	    -12.04967772	     39.97901104	     89.95437384	      0.00000000	      0.00000000	     -9.23028136	      6.67602433	     16.04886493	     18.67480132	     89.95437384	      0.00000000	      0.00000000
      1.11000000	     -3.13255907	     -0.51607204	      0.74909551	      0.00508350	      0.88093189	      1.47681736	     -1.20493590	      1.37797814	    -13.84054267	    -21.59469165	     -0.37689847	     13.99327757	      0.40470460	     -7.98406725	     32.97035522	      6.14192617	     15.65560559	    -24.14141490	     -0.42134718	      3.57478166	      7.85015273	     -5.37361599	     -4.18264919	     -1.02651501	      2.95186380	      8.45649182	    -12.27650576	    -11.97266655	     40.29101086	     89.95437384	      0.00000000	      0.00000000	     -9.53429083	      6.65313567	     15.98842980	     18.59770072	     89.95437384	      0.00000000	      0.00000000
      1.12000000	     -3.29033195	     -0.42387617	      0.25158239	      0.01454673	      0.87999313	      1.47595607	     -1.50964658	      1.10599987	    -13.25311318	    -21.94445388	     -0.38300297	     13.99913273	      0.71990559	     -7.94216891	     32.98965756	      6.16456395	     16.26466328	    -23.12295296	     -0.40357166	      3.57088816	      6.63457033	     -5.48296364	     -3.94016693	     -1.19906714	      3.37448047	      8.54431214	    -12.38678926	    -11.60687879	     40.43665283	     89.95437384	      0.00000000	      0.00000000	     -9.62183014	      6.63729445	     15.95643200	     18.31046289	     89.95437384	      0.00000000	      0.00000000
      1.13000000	     -3.17399734	     -0.42347329	     -0.17576618	      0.02455885	      0.87935455	      1.47506295	     -2.17176896	      0.90367234	    -12.92803130	    -22.26776451	     -0.38864581	     13.94724397	      1.02935602	     -7.89488795	     32.89087368	      6.39651932	     17.18502068	    -22.91056946	     -0.39986487	      3.59190132	      5.77124848	     -5.62852480	     -3.96242945	     -1.28942877	      3.68537518	      8.58754314	    -12.37226946	    -11.60387951	     40.65189806	     89.95437384	      0.00000000	      0.00000000	     -9.75126429	      6.61148234	     15.99398348	     18.14166421	     89.95437384	      0.00000000	      0.00000000
      1.14000000	     -3.30464534	     -0.48159975	     -0.31640987	      0.03456466	      0.87823266	      1.47385930	     -2.51582990	      0.78331653	    -12.76013150	    -22.71891682	     -0.39651990	     13.64068113	      1.00138549	     -7.75433899	     33.15755732	      6.38767765	     16.93842243	    -23.05846040	     -0.40244605	      3.51380028	      5.63756050	     -5.52079181	     -3.70198228	     -1.33103053	      3.67852559	      8.52346957	    -12.30860116	    -11.54543683	     40.87791920	     89.95437384	      0.00000000	      0.00000000	    -10.05398125	      6.64546541	     15.93235807	     18.32344108	     89.95437384	      0.00000000	      0.00000000
      1.15000000	     -3.42301596	     -0.55397999	     -0.48902332	      0.04480378	      0.87718081	      1.47268564	     -2.85783367	      0.67140595	    -12.56137233	    -23.16923357	     -0.40437941	     13.36173565	      0.97965004	     -7.62434327	     33.26470761	      6.40339125	     16.71050598	    -23.26235504	     -0.40600469	      3.48955431	      5.58589014	     -5.41295822	     -3.41220452	     -1.36212952	      3.67898210	      8.42536349	    -12.21877119	    -11.48480719	     41.06549236	     89.95437384	      0.00000000	      0.00000000	    -10.33518856	      6.68626085	     15.86360980	     18.45802442	     89.95437384	      0.00000000	      0.00000000
      1.16000000	     -3.13415519	     -0.64742392	     -1.15043183	      0.05538732	      0.87686119	      1.47206493	     -3.64327142	      0.62332245	    -11.45958606	    -23.54703594	     -0.41097331	     13.18237756	      1.08139238	     -7.60556550	     32.77293310	      6.61085164	     16.73726975	    -23.80336861	     -0.41544716	      4.53187804	      7.51039259	     -5.21771696	     -3.56061622	     -1.37071018	      4.26528059	      8.29106458	    -12.18351435	    -11.56150710	     41.22843964	     89.95437384	      0.00000000	      0.00000000	    -10.25115225	      6.73423314	     15.50832689	     18.12083436	     89.95437384	      0.00000000	      0.00000000
      1.17000000	     -3.22383081	     -0.62591387	     -1.36870462	      0.06571296	      0.87591778	      1.47072135	     -3.87473980	      0.45277457	    -10.81682313	    -24.23387807	     -0.42296096	     12.87312315	      0.34180373	     -7.39536637	     32.73706544	      6.29484870	     15.66045833	    -24.38756450	     -0.42564330	      4.51913757	      9.87818906	     -4.76435493	     -3.31009376	     -1.50106356	      4.33007459	      8.07066331	    -12.04159008	    -11.70720633	     41.41823260	     89.95437384	      0.00000000	      0.00000000	    -10.37572079	      6.83771450	     15.12232631	     18.15431631	     89.95437384	      0.00000000	      0.00000000
      1.18000000	     -3.25294700	     -0.63595304	     -1.58734874	      0.07636700	      0.87501769	      1.46937697	     -4.09940886	      0.29929626	    -10.18506878	    -25.08608459	     -0.43783477	     12.35526790	     -0.20204755	     -7.20105394	     32.57302996	      6.06194611	     14.77090598	    -25.14449654	     -0.43885425	      4.18909800	     11.38842820	     -4.25426157	     -3.08589117	     -1.61645049	      4.39216071	      7.78573558	    -11.92885442	    -11.76379370	     41.57031076	     89.95437384	      0.00000000	      0.00000000	    -10.48473311	      6.90531666	     15.09693797	     18.27478224	     89.95437384	      0.00000000	      0.00000000
      1.19000000	     -3.26577799	     -0.63251832	     -1.80067054	      0.08714714	      0.87414283	      1.46795316	     -4.31119530	      0.10874160	     -9.60125049	    -25.97075272	     -0.45327514	     11.84227934	     -0.53637799	     -6.99091118	     32.45397140	      5.95657024	     14.51400385	    -26.10792682	     -0.45566928	      2.78838350	     12.20203866	     -3.70156497	     -2.87296046	     -1.74334814	      4.39926878	      7.47470575	    -11.78555549	    -11.81609124	     41.71337864	     89.95437384	      0.00000000	      0.00000000	    -10.60787526	      6.98791688	     14.92613678	     18.40588314	     89.95437384	      0.00000000	      0.00000000
      1.20000000	     -3.37844878	     -0.64298436	     -1.81725018	      0.09842108	      0.87336052	      1.46638179	     -4.51231062	     -0.04542817	     -9.26612876	    -26.71221908	     -0.46621617	     11.35453293	     -0.53742921	     -6.81419602	     32.25204006	      5.79488777	     14.06824254	    -26.69356225	     -0.46589055	      2.44242245	     11.77680878	     -3.57575925	     -2.46925378	     -1.87799608	      4.25280408	      6.97023714	    -11.64441111	    -11.74346077	     41.79421219	     89.95437384	      0.00000000	      0.00000000	    -10.83097731	      7.11494407	     14.87989043	     18.74442884	     89.95437384	      0.00000000	      0.00000000
      1.21000000	     -3.45821669	     -0.38685649	     -1.90448379	      0.10807042	      0.87281982	      1.46451838	     -4.07936912	     -0.46334277	     -8.50587961	    -28.50419996	     -0.49749214	     10.17584866	     -2.30587663	     -6.27928380	     32.53110889	      5.31849797	     13.20398220	    -27.92733413	     -0.48742393	      1.29892276	     13.17269836	     -2.66470831	     -2.34991273	     -2.28993897	      4.19139184	      6.79975602	    -11.34365255	    -12.21503007	     41.70592761	     89.95437384	      0.00000000	      0.00000000	    -10.44252787	      7.27624057	     14.62299065	     18.49128636	     89.95437384	      0.00000000	      0.00000000
      1.22000000	     -3.30361824	     -0.25108826	     -1.82998945	      0.11888334	      0.87289439	      1.46255550	     -4.13729764	     -0.85039036	     -8.39643271	    -29.96451428	     -0.52297943	      9.07531972	     -2.63493259	     -5.94477016	     32.37314945	      5.09187730	     12.80734079	    -28.95912021	     -0.50543200	      0.42944208	     12.82588913	     -2.37995965	     -2.36984008	     -2.58035426	      3.90429992	      6.48458148	    -11.11681568	    -12.32167982	     41.55045610	     89.95437384	      0.00000000	      0.00000000	    -10.32578400	      7.42798484	     14.46945590	     18.59407903	     89.95437384	      0.00000000	      0.00000000
      1.23000000	     -3.36830064	      0.11954075	     -1.75883690	      0.12951948	      0.87297545	      1.46045598	     -3.71148844	     -1.49644453	     -8.33881197	    -31.77514423	     -0.55458089	      7.63083380	     -3.83486829	     -5.32573605	     32.33566687	      4.50490980	     12.21810004	    -29.81116627	     -0.52030301	     -0.38191177	     13.42145173	     -1.68687028	     -2.14173006	     -3.12039991	      3.72297977	      6.00250848	    -10.81487130	    -12.66992043	     41.46875400	     89.95437384	      0.00000000	      0.00000000	    -10.01813329	      7.63502218	     14.28670811	     18.49568219	     89.95437384	      0.00000000	      0.00000000
      1.24000000	     -3.14715423	      0.23823764	     -1.57940591	      0.14042689	      0.87356590	      1.45832313	     -3.59410832	     -1.94570339	     -8.73945385	    -33.56588647	     -0.58583524	      5.73089216	     -4.05814116	     -4.87334303	     32.00595695	      4.29054914	     12.13372366	    -30.91770667	     -0.53961578	     -0.11950973	     13.44432926	     -1.48570119	     -2.23959251	     -3.37351948	      3.41452150	      5.58181708	    -10.57543166	    -12.88064856	     41.21122989	     89.95437384	      0.00000000	      0.00000000	     -9.70374057	      7.81975101	     14.10802899	     18.54909705	     89.95437384	      0.00000000	      0.00000000
      1.25000000	     -3.14695443	      0.54464619	     -1.29494692	      0.15131534	      0.87407642	      1.45571609	     -3.00549114	     -2.63974320	     -9.26378849	    -35.67137385	     -0.62258292	      3.37480235	     -5.14330818	     -3.92099646	     31.66380857	      3.49419128	     11.30045702	    -31.53092362	     -0.55031843	      0.31934004	     14.47562363	     -0.77517264	     -2.06644939	     -3.78577946	      3.06317721	      4.97519301	    -10.31496401	    -13.23368489	     41.06888752	     89.95437384	      0.00000000	      0.00000000	     -9.30169652	      8.02562075	     13.82015984	     18.44723800	     89.95437384	      0.00000000	      0.00000000
      1.26000000	     -3.06567852	      0.72691875	     -0.98237030	      0.16217143	      0.87477226	      1.45325512	     -2.36383532	     -3.23709339	     -9.91262899	    -37.93156107	     -0.66203063	      0.76576783	     -5.94569160	     -2.73245213	     31.13437265	      2.84764749	     10.60387708	    -31.99277853	     -0.55837932	      0.83833586	     14.66937343	     -0.07198935	     -2.00076642	     -4.07134261	      2.64278755	      4.43673006	    -10.06627616	    -13.43510142	     40.78982318	     89.95437384	      0.00000000	      0.00000000	     -8.90869683	      8.25397032	     13.47085323	     18.46491251	     89.95437384	      0.00000000	      0.00000000
